<?xml version="1.0" encoding="UTF-8"?>
<svg version="1.1" xmlns="http://www.w3.org/2000/svg" width="1024" height="1024">
<path d="M0 0 C0.66 0 1.32 0 2 0 C2 0.66 2 1.32 2 2 C2.59389483 1.98776685 3.18778966 1.9755337 3.79968131 1.96292984 C41.14632078 1.20005777 78.47234628 0.8467531 115.82753706 0.8656745 C119.84778055 0.86721601 123.86802021 0.86710151 127.8882637 0.86618423 C128.90717813 0.86595439 128.90717813 0.86595439 129.94667668 0.86571989 C131.32838077 0.86540003 132.71008487 0.86507582 134.09178896 0.8647473 C146.81376704 0.86194665 159.53573772 0.8650983 172.25771458 0.87054767 C183.14756201 0.87506679 194.03739883 0.87418803 204.92724609 0.86962891 C217.70561668 0.86428135 230.48398103 0.86216345 243.26235259 0.86524117 C244.62083093 0.86555963 245.97930928 0.86587401 247.33778763 0.86618423 C248.00561484 0.86633851 248.67344205 0.86649279 249.36150645 0.86665174 C254.04809823 0.86751223 258.73468478 0.86601536 263.42127609 0.86370468 C269.68786735 0.86082696 275.95443832 0.8627997 282.22102737 0.86859894 C284.51890275 0.869924 286.81677983 0.8695367 289.11465454 0.86733627 C292.24120375 0.8646167 295.3676872 0.86801502 298.49423218 0.87301636 C299.86484348 0.86967027 299.86484348 0.86967027 301.2631439 0.86625659 C302.51726054 0.87016822 302.51726054 0.87016822 303.79671288 0.87415886 C304.51711892 0.87432121 305.23752496 0.87448356 305.97976148 0.87465084 C308.09188418 1.00570111 309.96760283 1.4242694 312 2 C313.2302023 5.79994055 313.11548397 9.55713612 313.06933594 13.50317383 C313.06454727 14.25329239 313.05975861 15.00341095 313.05482483 15.77626038 C313.03715811 18.25327096 313.01140216 20.73010612 312.984375 23.20703125 C312.96767417 24.93332381 312.95101214 26.65961674 312.93438721 28.38591003 C312.89792934 32.00480623 312.85671075 35.62361639 312.81298828 39.24243164 C312.75807474 43.86907489 312.721487 48.49566785 312.68935776 53.12251759 C312.66142565 56.68895394 312.62036661 60.25515377 312.57575226 63.82141685 C312.55661642 65.52651977 312.54229016 67.23168395 312.53295135 68.93686867 C312.51854371 71.32785193 312.48558201 73.71792199 312.44824219 76.10864258 C312.44803825 77.15550232 312.44803825 77.15550232 312.4478302 78.22351074 C312.34158931 83.23909863 311.15913931 86.5708868 309 91 C308.50242187 92.08796875 308.00484375 93.1759375 307.4921875 94.296875 C305.66454349 98.19938057 303.83526616 102.10107316 302 106 C301.65529663 106.73331543 301.31059326 107.46663086 300.95544434 108.22216797 C294.76864351 121.37379707 288.42004216 134.44319032 282.02767944 147.49588013 C276.49028767 158.80791089 271.09107038 170.16561456 265.85791016 181.62182617 C263.08443605 187.68443805 260.22122299 193.68069317 257.20507812 199.62573242 C248.70693299 216.40956907 240.6747752 233.43906572 232.75 250.5 C232.20126221 251.68045898 231.65252441 252.86091797 231.0871582 254.07714844 C228.95473589 258.68607389 226.87396157 263.27964275 225 268 C222.64453125 272.7109375 222.64453125 272.7109375 221.78051758 274.43847656 C221.10926622 275.78131787 220.43856878 277.12443615 219.76831055 278.46777344 C217.46236765 283.08655293 215.14271254 287.69810027 212.8125 292.3046875 C206.28077563 305.24853476 199.95310608 318.25194345 193.89575195 331.42675781 C190.02597996 339.83223263 186.04373364 348.17744327 182 356.5 C176.93120228 366.93990873 171.98004354 377.42891149 167.11645508 387.96630859 C164.00425163 394.70213029 160.8636916 401.42305504 157.6875 408.12890625 C157.31494583 408.91574295 156.94239166 409.70257965 156.55854797 410.51325989 C154.73765827 414.35739311 152.91394697 418.20015894 151.08666992 422.04125977 C147.48774573 429.62239296 143.96471969 437.23198683 140.55078125 444.8984375 C140.20919479 445.66467438 139.86760834 446.43091125 139.51567078 447.22036743 C138.23103365 450.12333603 137.00449547 452.9865136 136 456 C130.45035589 456.94153998 125.10711921 457.13694468 119.48461914 457.11352539 C118.09320206 457.11374443 118.09320206 457.11374443 116.67367554 457.1139679 C113.62747811 457.11327485 110.58134291 457.10551105 107.53515625 457.09765625 C105.41523777 457.09578991 103.29531885 457.09436703 101.17539978 457.09336853 C95.6105733 457.08956038 90.04577315 457.07974467 84.48095703 457.06866455 C78.7965531 457.05841379 73.11214489 457.05386307 67.42773438 457.04882812 C56.28514472 457.03812083 45.14257455 457.02106491 34 457 C33.67 456.34 33.34 455.68 33 455 C33.97696274 452.64121747 35.01744883 450.40851866 36.1640625 448.1328125 C36.5079451 447.43402481 36.8518277 446.73523712 37.20613098 446.01527405 C37.95048104 444.50425228 38.69831102 442.99494095 39.44918823 441.4871521 C41.42431262 437.51921748 43.37270135 433.53817689 45.32421875 429.55859375 C45.71909988 428.75498917 46.11398102 427.95138458 46.52082825 427.12342834 C49.96039913 420.11264296 53.31452172 413.06451135 56.60394287 405.9821167 C57.42087656 404.22328964 58.24189083 402.46635975 59.06298828 400.70947266 C59.55653809 399.64390137 60.05008789 398.57833008 60.55859375 397.48046875 C60.98454834 396.56160889 61.41050293 395.64274902 61.84936523 394.69604492 C63.07881311 391.93931776 63.07881311 391.93931776 64.02758789 388.7199707 C65 386 65 386 67 385 C67.69640644 383.01016018 68.35623499 381.00748874 69 379 C70.13356801 376.46394048 71.29087361 373.95633139 72.4921875 371.453125 C72.83428757 370.73274048 73.17638763 370.01235596 73.52885437 369.2701416 C74.64128227 366.92867662 75.75819148 364.58937824 76.875 362.25 C78.42510439 358.99049714 79.97257186 355.72974647 81.51953125 352.46875 C81.9041301 351.65863464 82.28872894 350.84851929 82.6849823 350.01385498 C86.03355164 342.95124915 89.30830888 335.85661451 92.5625 328.75 C95.88245238 321.51612599 99.26439126 314.33270491 102.86474609 307.234375 C111.30800405 290.56182913 119.21312015 273.61858325 127.0402832 256.65039062 C131.34667621 247.34053361 135.79764645 238.10652749 140.28323364 228.8822937 C143.90976056 221.41834494 147.42096594 213.93518451 150.67919922 206.30395508 C152.76474762 201.44961646 155.08190935 196.73475612 157.46948242 192.02514648 C161.12142756 184.80531633 164.66087209 177.5316042 168.1875 170.25 C168.51045044 169.58322235 168.83340088 168.9164447 169.1661377 168.22946167 C174.27503622 157.6693272 179.2753673 147.06345308 184.17260742 136.40332031 C189.32569185 125.2057598 194.67875126 114.12624736 200 103 C134 103 68 103 0 103 C-1 4 -1 4 0 0 Z " fill="#20F51B" transform="translate(199,282)"/>
<path d="M0 0 C0 118.47 0 236.94 0 359 C1.98 358.34 3.96 357.68 6 357 C9.3776226 356.75390434 9.3776226 356.75390434 13.13742065 356.75949097 C14.180291 356.75692769 14.180291 356.75692769 15.24422944 356.75431263 C17.56120104 356.75103266 19.87787953 356.76199655 22.19482422 356.77294922 C23.86071262 356.77351366 25.52660151 356.77319614 27.19248962 356.77206421 C31.70649692 356.77149097 36.22039768 356.78324072 40.73438025 356.79721212 C45.45492352 356.80972418 50.17546931 356.81089036 54.89602661 356.81326294 C63.83129887 356.8194763 72.76652212 356.8358852 81.70177281 356.85596192 C91.87583484 356.87832536 102.04989922 356.88931547 112.22397971 356.89935279 C133.14934715 356.92025154 154.07467049 356.95542476 175 357 C175.02325528 368.26652207 175.04098195 379.53303836 175.05181217 390.79957962 C175.05701229 396.03208519 175.06405733 401.26457424 175.07543945 406.49707031 C175.08637095 411.554534 175.09229842 416.61198188 175.09487724 421.66945648 C175.0967131 423.59097289 175.10029778 425.51248851 175.10573006 427.43399811 C175.1325933 437.33741453 175.11292979 447.14286971 174 457 C169.35522856 457.02472039 164.71049543 457.04286968 160.06567383 457.05493164 C158.48558892 457.05996014 156.90550866 457.06678378 155.32543945 457.07543945 C153.05418754 457.08756992 150.78299715 457.09324313 148.51171875 457.09765625 C147.45219246 457.10539818 147.45219246 457.10539818 146.3712616 457.11329651 C143.29745609 457.11364803 140.9409558 456.9803186 138 456 C137.67 456.66 137.34 457.32 137 458 C137 457.34 137 456.68 137 456 C136.0408755 456.07211952 135.081751 456.14423904 134.09356213 456.21854401 C124.08109805 456.93155522 114.15029297 457.10507996 104.11645508 457.00585938 C102.49661607 456.99403957 100.87677329 456.98272795 99.25692749 456.97187805 C95.80585792 456.94775372 92.35483923 456.92023668 88.90381813 456.88996887 C83.44460009 456.84222585 77.98533997 456.8030342 72.52604675 456.76501465 C61.93789607 456.69018819 51.3498144 456.60754938 40.76173401 456.52342987 C27.24457377 456.41604425 13.72741215 456.31010762 0.21015471 456.2156148 C-5.2160271 456.17737444 -10.64213751 456.13406562 -16.06824815 456.08683014 C-19.43578414 456.05852637 -22.80334081 456.03448054 -26.17091751 456.01158714 C-27.73141342 456.00009426 -29.29189738 455.98681904 -30.85236168 455.97162819 C-32.9823558 455.95113258 -35.11230184 455.9370082 -37.24235535 455.92443848 C-38.43373202 455.91484352 -39.6251087 455.90524857 -40.8525877 455.89536285 C-43.71089658 455.99038863 -46.21648404 456.39270039 -49 457 C-51.67812588 457.09645792 -54.32280039 457.14145699 -57 457.125 C-57.76876465 457.12306641 -58.5375293 457.12113281 -59.32958984 457.11914062 C-68.89771839 457.05031892 -78.44813245 456.52751931 -88 456 C-89.22235844 452.19937319 -89.1388356 448.43003177 -89.12584114 444.48278522 C-89.12729458 443.71870129 -89.12874802 442.95461735 -89.13024551 442.16737935 C-89.1339117 439.5922234 -89.13041621 437.0171264 -89.12698364 434.44197083 C-89.12813521 432.58307082 -89.12972297 430.72417104 -89.13171089 428.86527175 C-89.1358992 423.7455254 -89.13381575 418.62579761 -89.13072467 413.50605118 C-89.12846883 407.98934878 -89.13195107 402.47264964 -89.13470459 396.95594788 C-89.13915902 386.14497695 -89.13818734 375.33401296 -89.13529195 364.52304176 C-89.13303699 355.74120275 -89.1327258 346.95936569 -89.13381577 338.17752647 C-89.133969 336.9294446 -89.13412223 335.68136272 -89.13428011 334.39546018 C-89.13459982 331.86034205 -89.13492403 329.32522392 -89.1352527 326.79010578 C-89.13802504 303.67934735 -89.13514645 280.56859255 -89.1299101 257.45783495 C-89.12516261 236.34403963 -89.12559046 215.23025034 -89.13037109 194.11645508 C-89.13572086 170.40971499 -89.1378335 146.70297783 -89.13475883 122.99623698 C-89.13444027 120.47116673 -89.13412589 117.94609648 -89.13381577 115.42102623 C-89.13366149 114.17849727 -89.13350721 112.93596832 -89.13334826 111.65578697 C-89.13248294 102.87773525 -89.13394627 94.09968567 -89.13629532 85.32163429 C-89.13909239 74.63410098 -89.13835697 63.94657501 -89.13301457 53.25904254 C-89.13037654 47.80079353 -89.12937423 42.3425568 -89.13266373 36.88430786 C-89.13562452 31.89628319 -89.13403755 26.90828228 -89.12868617 21.9202598 C-89.12756107 20.1074532 -89.1281552 18.29464463 -89.13056196 16.48183928 C-89.13356419 14.03442732 -89.13052332 11.58709881 -89.12584114 9.13969135 C-89.12818231 8.42150631 -89.13052347 7.70332126 -89.13293558 6.96337304 C-89.1141504 2.1141504 -89.1141504 2.1141504 -88 1 C-85.29773748 0.87485368 -82.61977639 0.8139286 -79.91601562 0.79467773 C-79.06891525 0.78477814 -78.22181488 0.77487854 -77.3490448 0.76467896 C-74.53480878 0.73296401 -71.72055588 0.70826545 -68.90625 0.68359375 C-66.95950878 0.66303104 -65.01277209 0.64203476 -63.06604004 0.62062073 C-57.93064043 0.56531006 -52.79519989 0.51594429 -47.659729 0.46777344 C-42.42806309 0.41764872 -37.19645749 0.36190095 -31.96484375 0.30664062 C-24.33791848 0.22675577 -16.71097537 0.14928293 -9.08398438 0.07592773 C-8.27563644 0.06814804 -7.46728851 0.06036835 -6.63444519 0.05235291 C-1.13576357 0 -1.13576357 0 0 0 Z " fill="#F72B1D" transform="translate(649,283)"/>
<path d="M0 0 C332.97 0 665.94 0 1009 0 C1009 0.33 1009 0.66 1009 1 C979.8329002 1.84994183 950.69030114 2.14772199 921.51170003 2.13072467 C915.60468718 2.12841217 909.69767696 2.13198218 903.79066467 2.13470459 C892.84324834 2.13887475 881.89583801 2.13853348 870.94842138 2.13579312 C860.59637959 2.13321854 850.24433979 2.13264659 839.89229774 2.13381577 C838.83863798 2.13393034 838.83863798 2.13393034 837.76369216 2.13404724 C834.90409396 2.13435911 832.04449577 2.13467754 829.18489757 2.135007 C802.24914821 2.13807103 775.31340216 2.13530696 748.37765331 2.1299101 C725.48150229 2.12535587 702.58536059 2.12579655 679.68920898 2.13037109 C453.79076104 2.17227129 227.89905321 1.54697107 2 1 C2 338.59 2 676.18 2 1024 C1.34 1024 0.68 1024 0 1024 C0 686.08 0 348.16 0 0 Z " fill="#000000" transform="translate(0,0)"/>
<path d="M0 0 C0 118.47 0 236.94 0 359 C1.98 358.34 3.96 357.68 6 357 C9.3776226 356.75390434 9.3776226 356.75390434 13.13742065 356.75949097 C14.180291 356.75692769 14.180291 356.75692769 15.24422944 356.75431263 C17.56120104 356.75103266 19.87787953 356.76199655 22.19482422 356.77294922 C23.86071262 356.77351366 25.52660151 356.77319614 27.19248962 356.77206421 C31.70649692 356.77149097 36.22039768 356.78324072 40.73438025 356.79721212 C45.45492352 356.80972418 50.17546931 356.81089036 54.89602661 356.81326294 C63.83129887 356.8194763 72.76652212 356.8358852 81.70177281 356.85596192 C91.87583484 356.87832536 102.04989922 356.88931547 112.22397971 356.89935279 C133.14934715 356.92025154 154.07467049 356.95542476 175 357 C175.02325528 368.26652207 175.04098195 379.53303836 175.05181217 390.79957962 C175.05701229 396.03208519 175.06405733 401.26457424 175.07543945 406.49707031 C175.08637095 411.554534 175.09229842 416.61198188 175.09487724 421.66945648 C175.0967131 423.59097289 175.10029778 425.51248851 175.10573006 427.43399811 C175.1325933 437.33741453 175.11292979 447.14286971 174 457 C169.35522856 457.02472039 164.71049543 457.04286968 160.06567383 457.05493164 C158.48558892 457.05996014 156.90550866 457.06678378 155.32543945 457.07543945 C153.05418754 457.08756992 150.78299715 457.09324313 148.51171875 457.09765625 C147.45219246 457.10539818 147.45219246 457.10539818 146.3712616 457.11329651 C143.29745609 457.11364803 140.9409558 456.9803186 138 456 C137.67 456.66 137.34 457.32 137 458 C137 457.34 137 456.68 137 456 C136.0408755 456.07211952 135.081751 456.14423904 134.09356213 456.21854401 C124.08109805 456.93155522 114.15029297 457.10507996 104.11645508 457.00585938 C102.49661607 456.99403957 100.87677329 456.98272795 99.25692749 456.97187805 C95.80585792 456.94775372 92.35483923 456.92023668 88.90381813 456.88996887 C83.44460009 456.84222585 77.98533997 456.8030342 72.52604675 456.76501465 C61.93789607 456.69018819 51.3498144 456.60754938 40.76173401 456.52342987 C27.24457377 456.41604425 13.72741215 456.31010762 0.21015471 456.2156148 C-5.2160271 456.17737444 -10.64213751 456.13406562 -16.06824815 456.08683014 C-19.43578414 456.05852637 -22.80334081 456.03448054 -26.17091751 456.01158714 C-27.73141342 456.00009426 -29.29189738 455.98681904 -30.85236168 455.97162819 C-32.9823558 455.95113258 -35.11230184 455.9370082 -37.24235535 455.92443848 C-38.43373202 455.91484352 -39.6251087 455.90524857 -40.8525877 455.89536285 C-43.71089658 455.99038863 -46.21648404 456.39270039 -49 457 C-51.67812588 457.09645792 -54.32280039 457.14145699 -57 457.125 C-57.76876465 457.12306641 -58.5375293 457.12113281 -59.32958984 457.11914062 C-68.89771839 457.05031892 -78.44813245 456.52751931 -88 456 C-89.22235844 452.19937319 -89.1388356 448.43003177 -89.12584114 444.48278522 C-89.12729458 443.71870129 -89.12874802 442.95461735 -89.13024551 442.16737935 C-89.1339117 439.5922234 -89.13041621 437.0171264 -89.12698364 434.44197083 C-89.12813521 432.58307082 -89.12972297 430.72417104 -89.13171089 428.86527175 C-89.1358992 423.7455254 -89.13381575 418.62579761 -89.13072467 413.50605118 C-89.12846883 407.98934878 -89.13195107 402.47264964 -89.13470459 396.95594788 C-89.13915902 386.14497695 -89.13818734 375.33401296 -89.13529195 364.52304176 C-89.13303699 355.74120275 -89.1327258 346.95936569 -89.13381577 338.17752647 C-89.133969 336.9294446 -89.13412223 335.68136272 -89.13428011 334.39546018 C-89.13459982 331.86034205 -89.13492403 329.32522392 -89.1352527 326.79010578 C-89.13802504 303.67934735 -89.13514645 280.56859255 -89.1299101 257.45783495 C-89.12516261 236.34403963 -89.12559046 215.23025034 -89.13037109 194.11645508 C-89.13572086 170.40971499 -89.1378335 146.70297783 -89.13475883 122.99623698 C-89.13444027 120.47116673 -89.13412589 117.94609648 -89.13381577 115.42102623 C-89.13366149 114.17849727 -89.13350721 112.93596832 -89.13334826 111.65578697 C-89.13248294 102.87773525 -89.13394627 94.09968567 -89.13629532 85.32163429 C-89.13909239 74.63410098 -89.13835697 63.94657501 -89.13301457 53.25904254 C-89.13037654 47.80079353 -89.12937423 42.3425568 -89.13266373 36.88430786 C-89.13562452 31.89628319 -89.13403755 26.90828228 -89.12868617 21.9202598 C-89.12756107 20.1074532 -89.1281552 18.29464463 -89.13056196 16.48183928 C-89.13356419 14.03442732 -89.13052332 11.58709881 -89.12584114 9.13969135 C-89.12818231 8.42150631 -89.13052347 7.70332126 -89.13293558 6.96337304 C-89.1141504 2.1141504 -89.1141504 2.1141504 -88 1 C-85.29773748 0.87485368 -82.61977639 0.8139286 -79.91601562 0.79467773 C-79.06891525 0.78477814 -78.22181488 0.77487854 -77.3490448 0.76467896 C-74.53480878 0.73296401 -71.72055588 0.70826545 -68.90625 0.68359375 C-66.95950878 0.66303104 -65.01277209 0.64203476 -63.06604004 0.62062073 C-57.93064043 0.56531006 -52.79519989 0.51594429 -47.659729 0.46777344 C-42.42806309 0.41764872 -37.19645749 0.36190095 -31.96484375 0.30664062 C-24.33791848 0.22675577 -16.71097537 0.14928293 -9.08398438 0.07592773 C-8.27563644 0.06814804 -7.46728851 0.06036835 -6.63444519 0.05235291 C-1.13576357 0 -1.13576357 0 0 0 Z M-87 2 C-87 151.16 -87 300.32 -87 454 C-1.2 454 84.6 454 173 454 C173 422.98 173 391.96 173 360 C115.58 360 58.16 360 -1 360 C-1 241.86 -1 123.72 -1 2 C-29.38 2 -57.76 2 -87 2 Z " fill="#A01A13" transform="translate(649,283)"/>
<path d="M0 0 C0.66 0 1.32 0 2 0 C2 0.66 2 1.32 2 2 C2.59389483 1.98776685 3.18778966 1.9755337 3.79968131 1.96292984 C41.14632078 1.20005777 78.47234628 0.8467531 115.82753706 0.8656745 C119.84778055 0.86721601 123.86802021 0.86710151 127.8882637 0.86618423 C128.90717813 0.86595439 128.90717813 0.86595439 129.94667668 0.86571989 C131.32838077 0.86540003 132.71008487 0.86507582 134.09178896 0.8647473 C146.81376704 0.86194665 159.53573772 0.8650983 172.25771458 0.87054767 C183.14756201 0.87506679 194.03739883 0.87418803 204.92724609 0.86962891 C217.70561668 0.86428135 230.48398103 0.86216345 243.26235259 0.86524117 C244.62083093 0.86555963 245.97930928 0.86587401 247.33778763 0.86618423 C248.00561484 0.86633851 248.67344205 0.86649279 249.36150645 0.86665174 C254.04809823 0.86751223 258.73468478 0.86601536 263.42127609 0.86370468 C269.68786735 0.86082696 275.95443832 0.8627997 282.22102737 0.86859894 C284.51890275 0.869924 286.81677983 0.8695367 289.11465454 0.86733627 C292.24120375 0.8646167 295.3676872 0.86801502 298.49423218 0.87301636 C299.86484348 0.86967027 299.86484348 0.86967027 301.2631439 0.86625659 C302.51726054 0.87016822 302.51726054 0.87016822 303.79671288 0.87415886 C304.51711892 0.87432121 305.23752496 0.87448356 305.97976148 0.87465084 C308.09188418 1.00570111 309.96760283 1.4242694 312 2 C313.23755727 5.81008254 313.10832402 9.57826077 313.0534668 13.53491211 C313.04707184 14.28824326 313.04067688 15.0415744 313.03408813 15.81773376 C313.01133379 18.30436123 312.98070929 20.79081257 312.94921875 23.27734375 C312.92998067 25.00842595 312.91092505 26.73951018 312.89204407 28.47059631 C312.85108096 32.09788422 312.80586224 35.72509105 312.75805664 39.35229492 C312.69746976 43.99705166 312.65054918 48.64183474 312.60722637 53.28678036 C312.57183843 56.8616711 312.52760459 60.4364125 312.48087502 64.01117134 C312.45985388 65.72352152 312.44194438 67.43591287 312.4272213 69.14832878 C312.40560599 71.54433884 312.37168734 73.93987765 312.3347168 76.33569336 C312.33098557 77.04079041 312.32725433 77.74588745 312.32341003 78.47235107 C312.24797528 82.40541187 311.71890523 85.45189993 310 89 C297.32894813 63.65789626 309.65865931 32.33127714 310 4 C208.36 4 106.72 4 2 4 C2 36.01 2 68.02 2 101 C68 101 134 101 202 101 C200.08542215 106.74373354 198.15332453 112.36034052 196 118 C195.34 118 194.68 118 194 118 C194.43143353 116.62308448 194.87051164 115.24856381 195.3125 113.875 C195.55613281 113.10929687 195.79976562 112.34359375 196.05078125 111.5546875 C197.14468847 108.61059153 198.59541222 105.80917555 200 103 C134 103 68 103 0 103 C-1 4 -1 4 0 0 Z " fill="#27D21E" transform="translate(199,282)"/>
<path d="M0 0 C0 118.47 0 236.94 0 359 C1.98 358.34 3.96 357.68 6 357 C9.3776226 356.75390434 9.3776226 356.75390434 13.13742065 356.75949097 C14.180291 356.75692769 14.180291 356.75692769 15.24422944 356.75431263 C17.56120104 356.75103266 19.87787953 356.76199655 22.19482422 356.77294922 C23.86071262 356.77351366 25.52660151 356.77319614 27.19248962 356.77206421 C31.70649692 356.77149097 36.22039768 356.78324072 40.73438025 356.79721212 C45.45492352 356.80972418 50.17546931 356.81089036 54.89602661 356.81326294 C63.83129887 356.8194763 72.76652212 356.8358852 81.70177281 356.85596192 C91.87583484 356.87832536 102.04989922 356.88931547 112.22397971 356.89935279 C133.14934715 356.92025154 154.07467049 356.95542476 175 357 C175.02717692 359.06242617 175.0464758 361.12495703 175.0625 363.1875 C175.07410156 364.33605469 175.08570313 365.48460937 175.09765625 366.66796875 C175.01192832 369.59300586 174.67849023 372.16316291 174 375 C173.67 375 173.34 375 173 375 C173 370.05 173 365.1 173 360 C115.58 360 58.16 360 -1 360 C-1 241.86 -1 123.72 -1 2 C-29.38 2 -57.76 2 -87 2 C-86.98839844 8.42984375 -86.97679687 14.8596875 -86.96484375 21.484375 C-86.95972952 25.57682394 -86.9549152 29.66926889 -86.95117188 33.76171875 C-86.94521224 40.24626492 -86.93818945 46.73079686 -86.92456055 53.21533203 C-86.91363286 58.44785975 -86.90770236 63.6803722 -86.90512276 68.91291046 C-86.90328622 70.90141286 -86.89970019 72.8899145 -86.89426994 74.87841034 C-86.86784255 84.96409351 -86.85284256 94.96263662 -88 105 C-88.33 105 -88.66 105 -89 105 C-89.0231207 91.58774207 -89.04091369 78.17548883 -89.05181217 64.76321507 C-89.0570416 58.53606528 -89.06414033 52.30892908 -89.07543945 46.08178711 C-89.08626621 40.07773135 -89.09227638 34.07368871 -89.09487724 28.06962395 C-89.09673188 25.7733839 -89.10035321 23.47714461 -89.10573006 21.18091011 C-89.11293768 17.97679186 -89.11399106 14.7727285 -89.11352539 11.56860352 C-89.11712067 10.60907272 -89.12071594 9.64954193 -89.12442017 8.66093445 C-89.1230455 7.79290192 -89.12167084 6.92486938 -89.12025452 6.03053284 C-89.12117631 5.27189721 -89.1220981 4.51326159 -89.12304783 3.731637 C-89 2 -89 2 -88 1 C-85.29773748 0.87485368 -82.61977639 0.8139286 -79.91601562 0.79467773 C-79.06891525 0.78477814 -78.22181488 0.77487854 -77.3490448 0.76467896 C-74.53480878 0.73296401 -71.72055588 0.70826545 -68.90625 0.68359375 C-66.95950878 0.66303104 -65.01277209 0.64203476 -63.06604004 0.62062073 C-57.93064043 0.56531006 -52.79519989 0.51594429 -47.659729 0.46777344 C-42.42806309 0.41764872 -37.19645749 0.36190095 -31.96484375 0.30664062 C-24.33791848 0.22675577 -16.71097537 0.14928293 -9.08398438 0.07592773 C-8.27563644 0.06814804 -7.46728851 0.06036835 -6.63444519 0.05235291 C-1.13576357 0 -1.13576357 0 0 0 Z " fill="#A52118" transform="translate(649,283)"/>
<path d="M0 0 C0.66 0 1.32 0 2 0 C2 31.35 2 62.7 2 95 C68 95 134 95 202 95 C200.08542215 100.74373354 198.15332453 106.36034052 196 112 C195.34 112 194.68 112 194 112 C194.43143353 110.62308448 194.87051164 109.24856381 195.3125 107.875 C195.55613281 107.10929687 195.79976562 106.34359375 196.05078125 105.5546875 C197.14468847 102.61059153 198.59541222 99.80917555 200 97 C134 97 68 97 0 97 C0 64.99 0 32.98 0 0 Z " fill="#1C9C13" transform="translate(199,288)"/>
<path d="M0 0 C1.30624504 3.91873512 0.38472235 4.85629381 -1.4296875 8.49609375 C-1.97343018 9.60235107 -2.51717285 10.7086084 -3.07739258 11.84838867 C-3.37062408 12.43381439 -3.66385559 13.01924011 -3.9659729 13.62240601 C-5.49798914 16.68144954 -6.99897888 19.75569023 -8.50390625 22.828125 C-8.80582382 23.44229782 -9.10774139 24.05647064 -9.41880798 24.68925476 C-12.0068901 29.96932571 -14.4380561 35.30877772 -16.8125 40.6875 C-19.64857705 47.07740709 -22.62083784 53.36434978 -25.78173828 59.59936523 C-33.84131551 75.52513671 -41.36449912 91.71949848 -48.85986328 107.91625977 C-52.89846639 116.63990512 -56.96559091 125.34973674 -61.0567627 134.04885864 C-61.70501136 135.42732138 -62.35290631 136.80595054 -63.00036621 138.18478394 C-69.25189558 151.49561286 -75.62522897 164.74785036 -82 178 C-69.27426153 178.09256953 -56.54860279 178.16369876 -43.82259655 178.20724869 C-37.91375548 178.22814763 -32.00514429 178.25650768 -26.09643555 178.30175781 C-20.3970901 178.34513279 -14.69796613 178.36911971 -8.9984684 178.37950897 C-6.82107365 178.38691533 -4.64369139 178.40137772 -2.46639061 178.42292023 C0.57711874 178.45184286 3.61970603 178.45596063 6.66333008 178.45410156 C7.56891663 178.46848267 8.47450317 178.48286377 9.40753174 178.49768066 C14.25443767 178.60938229 14.25443767 178.60938229 18.08354187 175.97161865 C18.38597305 175.3209845 18.68840424 174.67035034 19 174 C18.505 176.97 18.505 176.97 18 180 C12.45035589 180.94153998 7.10711921 181.13694468 1.48461914 181.11352539 C0.09320206 181.11374443 0.09320206 181.11374443 -1.32632446 181.1139679 C-4.37252189 181.11327485 -7.41865709 181.10551105 -10.46484375 181.09765625 C-12.58476223 181.09578991 -14.70468115 181.09436703 -16.82460022 181.09336853 C-22.3894267 181.08956038 -27.95422685 181.07974467 -33.51904297 181.06866455 C-39.2034469 181.05841379 -44.88785511 181.05386307 -50.57226562 181.04882812 C-61.71485528 181.03812083 -72.85742545 181.02106491 -84 181 C-84.33 180.34 -84.66 179.68 -85 179 C-84.02303726 176.64121747 -82.98255117 174.40851866 -81.8359375 172.1328125 C-81.3201136 171.08463097 -81.3201136 171.08463097 -80.79386902 170.01527405 C-80.04951896 168.50425228 -79.30168898 166.99494095 -78.55081177 165.4871521 C-76.57568738 161.51921748 -74.62729865 157.53817689 -72.67578125 153.55859375 C-72.28090012 152.75498917 -71.88601898 151.95138458 -71.47917175 151.12342834 C-68.03960087 144.11264296 -64.68547828 137.06451135 -61.39605713 129.9821167 C-60.57912344 128.22328964 -59.75810917 126.46635975 -58.93701172 124.70947266 C-58.44346191 123.64390137 -57.94991211 122.57833008 -57.44140625 121.48046875 C-57.01545166 120.56160889 -56.58949707 119.64274902 -56.15063477 118.69604492 C-54.92118689 115.93931776 -54.92118689 115.93931776 -53.97241211 112.7199707 C-53 110 -53 110 -51 109 C-50.30359356 107.01016018 -49.64376501 105.00748874 -49 103 C-47.86643199 100.46394048 -46.70912639 97.95633139 -45.5078125 95.453125 C-44.9946624 94.37254822 -44.9946624 94.37254822 -44.47114563 93.2701416 C-43.35871773 90.92867662 -42.24180852 88.58937824 -41.125 86.25 C-39.57489561 82.99049714 -38.02742814 79.72974647 -36.48046875 76.46875 C-36.0958699 75.65863464 -35.71127106 74.84851929 -35.3150177 74.01385498 C-31.96644862 66.95124969 -28.69165376 59.85663122 -25.4375 52.75 C-22.10555245 45.48909869 -18.71536172 38.27607813 -15.09350586 31.15527344 C-9.87102603 20.86539653 -4.97205564 10.41242113 0 0 Z " fill="#24B01A" transform="translate(317,558)"/>
<path d="M0 0 C0.33 0 0.66 0 1 0 C1 9.9 1 19.8 1 30 C0.67 30 0.34 30 0 30 C0 20.1 0 10.2 0 0 Z " fill="#000000" transform="translate(1023,872)"/>
<path d="M0 0 C4.62 0 9.24 0 14 0 C13.67 1.32 13.34 2.64 13 4 C12.67 3.34 12.34 2.68 12 2 C9.1840151 1.53101037 9.1840151 1.53101037 5.9375 1.375 C4.28041016 1.26285156 4.28041016 1.26285156 2.58984375 1.1484375 C1.73519531 1.09945312 0.88054688 1.05046875 0 1 C0 0.67 0 0.34 0 0 Z " fill="#000000" transform="translate(1010,0)"/>
<path d="M0 0 C0.33 0 0.66 0 1 0 C1 4.62 1 9.24 1 14 C0.67 14 0.34 14 0 14 C0 9.38 0 4.76 0 0 Z " fill="#000000" transform="translate(1023,176)"/>
<path d="M0 0 C0.33 0 0.66 0 1 0 C1 4.29 1 8.58 1 13 C0.67 13 0.34 13 0 13 C0 8.71 0 4.42 0 0 Z " fill="#000000" transform="translate(1023,552)"/>
<path d="M0 0 C0.33 0 0.66 0 1 0 C1 4.29 1 8.58 1 13 C0.67 13 0.34 13 0 13 C0 8.71 0 4.42 0 0 Z " fill="#000000" transform="translate(1023,311)"/>
<path d="M0 0 C0.33 0 0.66 0 1 0 C1 3.63 1 7.26 1 11 C0.67 11 0.34 11 0 11 C0 7.37 0 3.74 0 0 Z " fill="#000000" transform="translate(1023,325)"/>
<path d="M0 0 C0.33 0 0.66 0 1 0 C1 3.3 1 6.6 1 10 C0.67 10 0.34 10 0 10 C0 6.7 0 3.4 0 0 Z " fill="#000000" transform="translate(1023,952)"/>
<path d="M0 0 C0.33 0 0.66 0 1 0 C1 2.97 1 5.94 1 9 C0.67 9 0.34 9 0 9 C0 6.03 0 3.06 0 0 Z " fill="#000000" transform="translate(1023,518)"/>
<path d="M0 0 C2.97 0 5.94 0 9 0 C9 0.33 9 0.66 9 1 C6.03 1 3.06 1 0 1 C0 0.67 0 0.34 0 0 Z " fill="#D23221" transform="translate(588,282)"/>
<path d="M0 0 C0.33 0 0.66 0 1 0 C1 2.97 1 5.94 1 9 C0.67 9 0.34 9 0 9 C0 6.03 0 3.06 0 0 Z " fill="#000000" transform="translate(1023,111)"/>
<path d="M0 0 C0.33 0 0.66 0 1 0 C1 2.97 1 5.94 1 9 C0.67 9 0.34 9 0 9 C0 6.03 0 3.06 0 0 Z " fill="#000000" transform="translate(1023,8)"/>
<path d="M0 0 C0.33 0 0.66 0 1 0 C1 2.31 1 4.62 1 7 C0.67 7 0.34 7 0 7 C0 4.69 0 2.38 0 0 Z " fill="#000000" transform="translate(1023,975)"/>
<path d="M0 0 C0.33 0 0.66 0 1 0 C1 2.31 1 4.62 1 7 C0.67 7 0.34 7 0 7 C0 4.69 0 2.38 0 0 Z " fill="#000000" transform="translate(1023,944)"/>
<path d="M0 0 C0.33 0 0.66 0 1 0 C1 2.31 1 4.62 1 7 C0.67 7 0.34 7 0 7 C0 4.69 0 2.38 0 0 Z " fill="#000000" transform="translate(1023,710)"/>
<path d="M0 0 C0.33 0 0.66 0 1 0 C1 2.31 1 4.62 1 7 C0.67 7 0.34 7 0 7 C0 4.69 0 2.38 0 0 Z " fill="#000000" transform="translate(1023,591)"/>
<path d="M0 0 C0.33 0 0.66 0 1 0 C1 2.31 1 4.62 1 7 C0.67 7 0.34 7 0 7 C0 4.69 0 2.38 0 0 Z " fill="#000000" transform="translate(1023,528)"/>
<path d="M0 0 C0.33 0 0.66 0 1 0 C1 2.31 1 4.62 1 7 C0.67 7 0.34 7 0 7 C0 4.69 0 2.38 0 0 Z " fill="#000000" transform="translate(1023,447)"/>
<path d="M0 0 C0.33 0 0.66 0 1 0 C1 2.31 1 4.62 1 7 C0.67 7 0.34 7 0 7 C0 4.69 0 2.38 0 0 Z " fill="#000000" transform="translate(1023,360)"/>
<path d="M0 0 C0.33 0 0.66 0 1 0 C1 2.31 1 4.62 1 7 C0.67 7 0.34 7 0 7 C0 4.69 0 2.38 0 0 Z " fill="#000000" transform="translate(1023,279)"/>
<path d="M0 0 C0.33 0 0.66 0 1 0 C1 1.98 1 3.96 1 6 C0.67 6 0.34 6 0 6 C0 4.02 0 2.04 0 0 Z " fill="#000000" transform="translate(1023,928)"/>
<path d="M0 0 C0.33 0 0.66 0 1 0 C1 1.98 1 3.96 1 6 C0.67 6 0.34 6 0 6 C0 4.02 0 2.04 0 0 Z " fill="#000000" transform="translate(1023,832)"/>
<path d="M0 0 C0.33 0 0.66 0 1 0 C1 1.65 1 3.3 1 5 C0.34 3.68 -0.32 2.36 -1 1 C-0.67 0.67 -0.34 0.34 0 0 Z " fill="#000000" transform="translate(1023,819)"/>
<path d="M0 0 C0.33 0 0.66 0 1 0 C1 1.98 1 3.96 1 6 C0.67 6 0.34 6 0 6 C0 4.02 0 2.04 0 0 Z " fill="#000000" transform="translate(1023,752)"/>
<path d="M0 0 C0.33 0 0.66 0 1 0 C1 1.98 1 3.96 1 6 C0.67 6 0.34 6 0 6 C0 4.02 0 2.04 0 0 Z " fill="#000000" transform="translate(1023,720)"/>
<path d="M0 0 C0.33 0 0.66 0 1 0 C1 1.98 1 3.96 1 6 C0.67 6 0.34 6 0 6 C0 4.02 0 2.04 0 0 Z " fill="#000000" transform="translate(1023,616)"/>
<path d="M0 0 C0.33 0 0.66 0 1 0 C1 1.98 1 3.96 1 6 C0.67 6 0.34 6 0 6 C0 4.02 0 2.04 0 0 Z " fill="#000000" transform="translate(1023,536)"/>
<path d="M0 0 C0.33 0 0.66 0 1 0 C1 1.98 1 3.96 1 6 C0.67 6 0.34 6 0 6 C0 4.02 0 2.04 0 0 Z " fill="#000000" transform="translate(1023,487)"/>
<path d="M0 0 C0.33 0 0.66 0 1 0 C1 1.98 1 3.96 1 6 C0.67 6 0.34 6 0 6 C0 4.02 0 2.04 0 0 Z " fill="#000000" transform="translate(1023,480)"/>
<path d="M0 0 C0.33 0 0.66 0 1 0 C1 1.98 1 3.96 1 6 C0.67 6 0.34 6 0 6 C0 4.02 0 2.04 0 0 Z " fill="#000000" transform="translate(1023,472)"/>
<path d="M0 0 C0.33 0 0.66 0 1 0 C1 1.98 1 3.96 1 6 C0.67 6 0.34 6 0 6 C0 4.02 0 2.04 0 0 Z " fill="#000000" transform="translate(1023,464)"/>
<path d="M0 0 C0.33 0 0.66 0 1 0 C1 1.98 1 3.96 1 6 C0.67 6 0.34 6 0 6 C0 4.02 0 2.04 0 0 Z " fill="#000000" transform="translate(1023,440)"/>
<path d="M0 0 C0.33 0 0.66 0 1 0 C1 1.98 1 3.96 1 6 C0.67 6 0.34 6 0 6 C0 4.02 0 2.04 0 0 Z " fill="#000000" transform="translate(1023,432)"/>
<path d="M0 0 C0.33 0 0.66 0 1 0 C1 1.98 1 3.96 1 6 C0.67 6 0.34 6 0 6 C0 4.02 0 2.04 0 0 Z " fill="#000000" transform="translate(1023,424)"/>
<path d="M0 0 C0.33 0 0.66 0 1 0 C1 1.98 1 3.96 1 6 C0.67 6 0.34 6 0 6 C0 4.02 0 2.04 0 0 Z " fill="#000000" transform="translate(1023,368)"/>
<path d="M0 0 C0.33 0 0.66 0 1 0 C1 1.98 1 3.96 1 6 C0.67 6 0.34 6 0 6 C0 4.02 0 2.04 0 0 Z " fill="#000000" transform="translate(1023,344)"/>
<path d="M0 0 C0.33 0 0.66 0 1 0 C1 1.98 1 3.96 1 6 C0.67 6 0.34 6 0 6 C0 4.02 0 2.04 0 0 Z " fill="#000000" transform="translate(1023,288)"/>
<path d="M0 0 C0.33 0 0.66 0 1 0 C1 1.98 1 3.96 1 6 C0.67 6 0.34 6 0 6 C0 4.02 0 2.04 0 0 Z " fill="#000000" transform="translate(1023,224)"/>
<path d="M0 0 C0.33 0 0.66 0 1 0 C1 1.98 1 3.96 1 6 C0.67 6 0.34 6 0 6 C0 4.02 0 2.04 0 0 Z " fill="#000000" transform="translate(1023,207)"/>
<path d="M0 0 C0.33 0 0.66 0 1 0 C1 1.98 1 3.96 1 6 C0.67 6 0.34 6 0 6 C0 4.02 0 2.04 0 0 Z " fill="#000000" transform="translate(1023,128)"/>
<path d="M0 0 C0.33 0 0.66 0 1 0 C1 1.98 1 3.96 1 6 C0.67 6 0.34 6 0 6 C0 4.02 0 2.04 0 0 Z " fill="#000000" transform="translate(1023,104)"/>
<path d="M0 0 C0.33 0 0.66 0 1 0 C1 1.65 1 3.3 1 5 C0.67 5 0.34 5 0 5 C0 3.35 0 1.7 0 0 Z " fill="#000000" transform="translate(1023,504)"/>
<path d="M0 0 C0.33 0 0.66 0 1 0 C1 1.65 1 3.3 1 5 C0.67 5 0.34 5 0 5 C0 3.35 0 1.7 0 0 Z " fill="#000000" transform="translate(1023,456)"/>
<path d="M0 0 C0.33 0 0.66 0 1 0 C1 1.65 1 3.3 1 5 C0.67 5 0.34 5 0 5 C0 3.35 0 1.7 0 0 Z " fill="#000000" transform="translate(1023,400)"/>
<path d="M0 0 C0.33 0 0.66 0 1 0 C1 1.65 1 3.3 1 5 C0.67 5 0.34 5 0 5 C0 3.35 0 1.7 0 0 Z " fill="#000000" transform="translate(1023,376)"/>
<path d="M0 0 C0.33 0 0.66 0 1 0 C1 1.65 1 3.3 1 5 C0.67 5 0.34 5 0 5 C0 3.35 0 1.7 0 0 Z " fill="#000000" transform="translate(1023,296)"/>
<path d="M0 0 C1.65 0 3.3 0 5 0 C5 0.33 5 0.66 5 1 C3.35 1 1.7 1 0 1 C0 0.67 0 0.34 0 0 Z " fill="#D32E21" transform="translate(606,282)"/>
<path d="M0 0 C0.33 0 0.66 0 1 0 C1 1.65 1 3.3 1 5 C0.67 5 0.34 5 0 5 C0 3.35 0 1.7 0 0 Z " fill="#000000" transform="translate(1023,192)"/>
<path d="M0 0 C0.33 0 0.66 0 1 0 C1 1.65 1 3.3 1 5 C0.67 5 0.34 5 0 5 C0 3.35 0 1.7 0 0 Z " fill="#000000" transform="translate(1023,96)"/>
<path d="M0 0 C0.33 0 0.66 0 1 0 C1 1.65 1 3.3 1 5 C0.67 5 0.34 5 0 5 C0 3.35 0 1.7 0 0 Z " fill="#000000" transform="translate(1023,87)"/>
<path d="M0 0 C1 4 1 4 1 4 Z " fill="#000000" transform="translate(1023,914)"/>
<path d="M0 0 C4 1 4 1 4 1 Z " fill="#CB2C1F" transform="translate(630,282)"/>
<path d="M0 0 C4 1 4 1 4 1 Z " fill="#D22E21" transform="translate(612,282)"/>
<path d="M0 0 C4 1 4 1 4 1 Z " fill="#D13322" transform="translate(582,282)"/>
<path d="M0 0 C1 4 1 4 1 4 Z " fill="#000000" transform="translate(1023,256)"/>
<path d="M0 0 C1 4 1 4 1 4 Z " fill="#000000" transform="translate(1023,168)"/>
<path d="" fill="#000000" transform="translate(0,0)"/>
<path d="" fill="#000000" transform="translate(0,0)"/>
<path d="" fill="#000000" transform="translate(0,0)"/>
<path d="" fill="#000000" transform="translate(0,0)"/>
<path d="" fill="#000000" transform="translate(0,0)"/>
<path d="" fill="#000000" transform="translate(0,0)"/>
<path d="" fill="#000000" transform="translate(0,0)"/>
<path d="M0 0 C0.33 0.66 0.66 1.32 1 2 C0.34 1.67 -0.32 1.34 -1 1 C-0.67 0.67 -0.34 0.34 0 0 Z " fill="#A31E18" transform="translate(561,740)"/>
<path d="M0 0 C0.33 0.66 0.66 1.32 1 2 C0.34 1.67 -0.32 1.34 -1 1 C-0.67 0.67 -0.34 0.34 0 0 Z " fill="#32CA24" transform="translate(367,670)"/>
<path d="" fill="#000000" transform="translate(0,0)"/>
<path d="" fill="#000000" transform="translate(0,0)"/>
<path d="M0 0 C0.66 0.66 1.32 1.32 2 2 C1.34 2 0.68 2 0 2 C0 1.34 0 0.68 0 0 Z " fill="#46C82B" transform="translate(500,390)"/>
<path d="" fill="#000000" transform="translate(0,0)"/>
<path d="" fill="#000000" transform="translate(0,0)"/>
<path d="" fill="#000000" transform="translate(0,0)"/>
<path d="M0 0 C3 1 3 1 3 1 Z " fill="#37E029" transform="translate(389,282)"/>
<path d="M0 0 C3 1 3 1 3 1 Z " fill="#35DE29" transform="translate(285,282)"/>
<path d="" fill="#000000" transform="translate(0,0)"/>
<path d="" fill="#000000" transform="translate(0,0)"/>
<path d="" fill="#000000" transform="translate(0,0)"/>
<path d="" fill="#000000" transform="translate(0,0)"/>
<path d="" fill="#000000" transform="translate(0,0)"/>
<path d="" fill="#000000" transform="translate(0,0)"/>
<path d="" fill="#000000" transform="translate(0,0)"/>
<path d="M0 0 C2 1 2 1 2 1 Z " fill="#000000" transform="translate(973,1023)"/>
<path d="M0 0 C2 1 2 1 2 1 Z " fill="#000000" transform="translate(893,1023)"/>
<path d="M0 0 C2 1 2 1 2 1 Z " fill="#000000" transform="translate(341,1023)"/>
<path d="" fill="#000000" transform="translate(0,0)"/>
<path d="" fill="#000000" transform="translate(0,0)"/>
<path d="" fill="#000000" transform="translate(0,0)"/>
<path d="" fill="#000000" transform="translate(0,0)"/>
<path d="" fill="#000000" transform="translate(0,0)"/>
<path d="" fill="#000000" transform="translate(0,0)"/>
<path d="" fill="#000000" transform="translate(0,0)"/>
<path d="" fill="#000000" transform="translate(0,0)"/>
<path d="" fill="#000000" transform="translate(0,0)"/>
<path d="" fill="#000000" transform="translate(0,0)"/>
<path d="" fill="#000000" transform="translate(0,0)"/>
<path d="" fill="#000000" transform="translate(0,0)"/>
<path d="" fill="#000000" transform="translate(0,0)"/>
<path d="" fill="#000000" transform="translate(0,0)"/>
<path d="" fill="#000000" transform="translate(0,0)"/>
<path d="" fill="#000000" transform="translate(0,0)"/>
<path d="" fill="#000000" transform="translate(0,0)"/>
<path d="M0 0 C2 1 2 1 2 1 Z " fill="#A61E17" transform="translate(820,740)"/>
<path d="M0 0 C2 1 2 1 2 1 Z " fill="#BF221A" transform="translate(798,740)"/>
<path d="M0 0 C2 1 2 1 2 1 Z " fill="#C6241C" transform="translate(782,740)"/>
<path d="" fill="#000000" transform="translate(0,0)"/>
<path d="M0 0 C2 1 2 1 2 1 Z " fill="#31CB24" transform="translate(240,715)"/>
<path d="" fill="#000000" transform="translate(0,0)"/>
<path d="" fill="#31CB20" transform="translate(0,0)"/>
<path d="" fill="#000000" transform="translate(0,0)"/>
<path d="" fill="#000000" transform="translate(0,0)"/>
<path d="" fill="#000000" transform="translate(0,0)"/>
<path d="" fill="#30D326" transform="translate(0,0)"/>
<path d="" fill="#000000" transform="translate(0,0)"/>
<path d="" fill="#000000" transform="translate(0,0)"/>
<path d="" fill="#000000" transform="translate(0,0)"/>
<path d="" fill="#000000" transform="translate(0,0)"/>
<path d="" fill="#000000" transform="translate(0,0)"/>
<path d="" fill="#33D025" transform="translate(0,0)"/>
<path d="" fill="#000000" transform="translate(0,0)"/>
<path d="" fill="#35CF24" transform="translate(0,0)"/>
<path d="" fill="#000000" transform="translate(0,0)"/>
<path d="" fill="#36D225" transform="translate(0,0)"/>
<path d="" fill="#000000" transform="translate(0,0)"/>
<path d="" fill="#000000" transform="translate(0,0)"/>
<path d="" fill="#000000" transform="translate(0,0)"/>
<path d="" fill="#32DD26" transform="translate(0,0)"/>
<path d="" fill="#37CE27" transform="translate(0,0)"/>
<path d="" fill="#000000" transform="translate(0,0)"/>
<path d="" fill="#000000" transform="translate(0,0)"/>
<path d="M0 0 C2 1 2 1 2 1 Z " fill="#38C827" transform="translate(462,470)"/>
<path d="" fill="#000000" transform="translate(0,0)"/>
<path d="" fill="#000000" transform="translate(0,0)"/>
<path d="" fill="#000000" transform="translate(0,0)"/>
<path d="" fill="#000000" transform="translate(0,0)"/>
<path d="" fill="#45CC2B" transform="translate(0,0)"/>
<path d="M0 0 C2 1 2 1 2 1 Z " fill="#B9291A" transform="translate(646,282)"/>
<path d="M0 0 C2 1 2 1 2 1 Z " fill="#D02D1F" transform="translate(622,282)"/>
<path d="M0 0 C2 1 2 1 2 1 Z " fill="#D23122" transform="translate(598,282)"/>
<path d="M0 0 C2 1 2 1 2 1 Z " fill="#CD3524" transform="translate(577,282)"/>
<path d="M0 0 C2 1 2 1 2 1 Z " fill="#C93723" transform="translate(574,282)"/>
<path d="M0 0 C2 1 2 1 2 1 Z " fill="#BC3E26" transform="translate(564,282)"/>
<path d="M0 0 C2 1 2 1 2 1 Z " fill="#38D729" transform="translate(454,282)"/>
<path d="M0 0 C2 1 2 1 2 1 Z " fill="#37DA29" transform="translate(446,282)"/>
<path d="M0 0 C2 1 2 1 2 1 Z " fill="#37DA29" transform="translate(438,282)"/>
<path d="M0 0 C2 1 2 1 2 1 Z " fill="#37DD29" transform="translate(422,282)"/>
<path d="M0 0 C2 1 2 1 2 1 Z " fill="#37DE2A" transform="translate(398,282)"/>
<path d="M0 0 C2 1 2 1 2 1 Z " fill="#37E02A" transform="translate(374,282)"/>
<path d="M0 0 C2 1 2 1 2 1 Z " fill="#36DE2A" transform="translate(358,282)"/>
<path d="M0 0 C2 1 2 1 2 1 Z " fill="#37E029" transform="translate(350,282)"/>
<path d="M0 0 C2 1 2 1 2 1 Z " fill="#37E029" transform="translate(310,282)"/>
<path d="M0 0 C2 1 2 1 2 1 Z " fill="#35DC2C" transform="translate(246,282)"/>
<path d="M0 0 C2 1 2 1 2 1 Z " fill="#34DA2B" transform="translate(238,282)"/>
<path d="M0 0 C2 1 2 1 2 1 Z " fill="#34D929" transform="translate(230,282)"/>
<path d="" fill="#000000" transform="translate(0,0)"/>
<path d="" fill="#000000" transform="translate(0,0)"/>
<path d="" fill="#000000" transform="translate(0,0)"/>
<path d="" fill="#000000" transform="translate(0,0)"/>
<path d="" fill="#000000" transform="translate(0,0)"/>
<path d="" fill="#000000" transform="translate(0,0)"/>
<path d="" fill="#000000" transform="translate(0,0)"/>
<path d="" fill="#000000" transform="translate(0,0)"/>
<path d="" fill="#000000" transform="translate(0,0)"/>
<path d="" fill="#000000" transform="translate(0,0)"/>
<path d="" fill="#000000" transform="translate(0,0)"/>
<path d="" fill="#000000" transform="translate(0,0)"/>
<path d="" fill="#000000" transform="translate(0,0)"/>
<path d="" fill="#000000" transform="translate(0,0)"/>
<path d="" fill="#000000" transform="translate(0,0)"/>
<path d="" fill="#000000" transform="translate(0,0)"/>
<path d="" fill="#000000" transform="translate(0,0)"/>
<path d="" fill="#000000" transform="translate(0,0)"/>
<path d="" fill="#000000" transform="translate(0,0)"/>
<path d="" fill="#000000" transform="translate(0,0)"/>
<path d="" fill="#000000" transform="translate(0,0)"/>
<path d="" fill="#000000" transform="translate(0,0)"/>
<path d="" fill="#000000" transform="translate(0,0)"/>
<path d="" fill="#000000" transform="translate(0,0)"/>
<path d="" fill="#000000" transform="translate(0,0)"/>
<path d="" fill="#000000" transform="translate(0,0)"/>
<path d="" fill="#000000" transform="translate(0,0)"/>
<path d="" fill="#000000" transform="translate(0,0)"/>
<path d="" fill="#000000" transform="translate(0,0)"/>
<path d="" fill="#000000" transform="translate(0,0)"/>
<path d="" fill="#000000" transform="translate(0,0)"/>
<path d="" fill="#000000" transform="translate(0,0)"/>
<path d="" fill="#000000" transform="translate(0,0)"/>
<path d="" fill="#000000" transform="translate(0,0)"/>
<path d="" fill="#000000" transform="translate(0,0)"/>
<path d="" fill="#000000" transform="translate(0,0)"/>
<path d="" fill="#000000" transform="translate(0,0)"/>
<path d="" fill="#000000" transform="translate(0,0)"/>
<path d="" fill="#000000" transform="translate(0,0)"/>
<path d="" fill="#000000" transform="translate(0,0)"/>
<path d="" fill="#000000" transform="translate(0,0)"/>
<path d="" fill="#000000" transform="translate(0,0)"/>
<path d="" fill="#000000" transform="translate(0,0)"/>
<path d="" fill="#000000" transform="translate(0,0)"/>
<path d="" fill="#000000" transform="translate(0,0)"/>
<path d="" fill="#000300" transform="translate(0,0)"/>
<path d="" fill="#010000" transform="translate(0,0)"/>
<path d="" fill="#000000" transform="translate(0,0)"/>
<path d="" fill="#000300" transform="translate(0,0)"/>
<path d="" fill="#000200" transform="translate(0,0)"/>
<path d="" fill="#000000" transform="translate(0,0)"/>
<path d="" fill="#000600" transform="translate(0,0)"/>
<path d="" fill="#000000" transform="translate(0,0)"/>
<path d="" fill="#010800" transform="translate(0,0)"/>
<path d="" fill="#000000" transform="translate(0,0)"/>
<path d="" fill="#031000" transform="translate(0,0)"/>
<path d="" fill="#000900" transform="translate(0,0)"/>
<path d="" fill="#000300" transform="translate(0,0)"/>
<path d="" fill="#000000" transform="translate(0,0)"/>
<path d="" fill="#140200" transform="translate(0,0)"/>
<path d="" fill="#000000" transform="translate(0,0)"/>
<path d="" fill="#000000" transform="translate(0,0)"/>
<path d="" fill="#000000" transform="translate(0,0)"/>
<path d="" fill="#000000" transform="translate(0,0)"/>
<path d="" fill="#000000" transform="translate(0,0)"/>
<path d="" fill="#000000" transform="translate(0,0)"/>
<path d="" fill="#C6231C" transform="translate(0,0)"/>
<path d="" fill="#CC271F" transform="translate(0,0)"/>
<path d="" fill="#C4231B" transform="translate(0,0)"/>
<path d="" fill="#C6251C" transform="translate(0,0)"/>
<path d="" fill="#CA261C" transform="translate(0,0)"/>
<path d="" fill="#CE241D" transform="translate(0,0)"/>
<path d="" fill="#CC231C" transform="translate(0,0)"/>
<path d="" fill="#CB241D" transform="translate(0,0)"/>
<path d="" fill="#CD261E" transform="translate(0,0)"/>
<path d="" fill="#CF241C" transform="translate(0,0)"/>
<path d="" fill="#AC2019" transform="translate(0,0)"/>
<path d="" fill="#000000" transform="translate(0,0)"/>
<path d="" fill="#9E1C18" transform="translate(0,0)"/>
<path d="" fill="#AC2019" transform="translate(0,0)"/>
<path d="" fill="#C4231C" transform="translate(0,0)"/>
<path d="" fill="#C9241C" transform="translate(0,0)"/>
<path d="" fill="#C8241D" transform="translate(0,0)"/>
<path d="" fill="#C9261D" transform="translate(0,0)"/>
<path d="" fill="#CB261B" transform="translate(0,0)"/>
<path d="" fill="#CC261D" transform="translate(0,0)"/>
<path d="" fill="#CC251B" transform="translate(0,0)"/>
<path d="" fill="#CB251C" transform="translate(0,0)"/>
<path d="" fill="#CE241D" transform="translate(0,0)"/>
<path d="" fill="#CC251B" transform="translate(0,0)"/>
<path d="" fill="#CC261B" transform="translate(0,0)"/>
<path d="" fill="#CD251B" transform="translate(0,0)"/>
<path d="" fill="#CD251C" transform="translate(0,0)"/>
<path d="" fill="#CC241C" transform="translate(0,0)"/>
<path d="" fill="#CC241C" transform="translate(0,0)"/>
<path d="" fill="#CD261D" transform="translate(0,0)"/>
<path d="" fill="#CC251E" transform="translate(0,0)"/>
<path d="" fill="#CC251D" transform="translate(0,0)"/>
<path d="" fill="#CB251C" transform="translate(0,0)"/>
<path d="" fill="#C9241C" transform="translate(0,0)"/>
<path d="" fill="#C5231D" transform="translate(0,0)"/>
<path d="" fill="#2FA426" transform="translate(0,0)"/>
<path d="" fill="#A21E18" transform="translate(0,0)"/>
<path d="" fill="#2DB023" transform="translate(0,0)"/>
<path d="" fill="#000000" transform="translate(0,0)"/>
<path d="" fill="#B8231B" transform="translate(0,0)"/>
<path d="" fill="#000000" transform="translate(0,0)"/>
<path d="" fill="#000000" transform="translate(0,0)"/>
<path d="" fill="#30C522" transform="translate(0,0)"/>
<path d="" fill="#31B826" transform="translate(0,0)"/>
<path d="" fill="#30C422" transform="translate(0,0)"/>
<path d="" fill="#C9291F" transform="translate(0,0)"/>
<path d="" fill="#31CC26" transform="translate(0,0)"/>
<path d="" fill="#31C822" transform="translate(0,0)"/>
<path d="" fill="#2ED224" transform="translate(0,0)"/>
<path d="" fill="#000000" transform="translate(0,0)"/>
<path d="" fill="#30D125" transform="translate(0,0)"/>
<path d="" fill="#CE2A21" transform="translate(0,0)"/>
<path d="" fill="#33D226" transform="translate(0,0)"/>
<path d="" fill="#000000" transform="translate(0,0)"/>
<path d="" fill="#32D126" transform="translate(0,0)"/>
<path d="" fill="#34D227" transform="translate(0,0)"/>
<path d="" fill="#33D625" transform="translate(0,0)"/>
<path d="" fill="#35D227" transform="translate(0,0)"/>
<path d="" fill="#000000" transform="translate(0,0)"/>
<path d="" fill="#000000" transform="translate(0,0)"/>
<path d="" fill="#30D928" transform="translate(0,0)"/>
<path d="" fill="#33D327" transform="translate(0,0)"/>
<path d="" fill="#30D527" transform="translate(0,0)"/>
<path d="" fill="#34CE26" transform="translate(0,0)"/>
<path d="" fill="#35CD24" transform="translate(0,0)"/>
<path d="" fill="#000000" transform="translate(0,0)"/>
<path d="" fill="#33CE25" transform="translate(0,0)"/>
<path d="" fill="#E43223" transform="translate(0,0)"/>
<path d="" fill="#000000" transform="translate(0,0)"/>
<path d="" fill="#E03021" transform="translate(0,0)"/>
<path d="" fill="#D62F1F" transform="translate(0,0)"/>
<path d="" fill="#000000" transform="translate(0,0)"/>
<path d="" fill="#35CC26" transform="translate(0,0)"/>
<path d="" fill="#2DDA25" transform="translate(0,0)"/>
<path d="" fill="#2FDC26" transform="translate(0,0)"/>
<path d="" fill="#35CE27" transform="translate(0,0)"/>
<path d="" fill="#33D828" transform="translate(0,0)"/>
<path d="" fill="#33CF29" transform="translate(0,0)"/>
<path d="" fill="#34CF26" transform="translate(0,0)"/>
<path d="" fill="#33CF25" transform="translate(0,0)"/>
<path d="" fill="#34D226" transform="translate(0,0)"/>
<path d="" fill="#34D326" transform="translate(0,0)"/>
<path d="" fill="#000000" transform="translate(0,0)"/>
<path d="" fill="#000000" transform="translate(0,0)"/>
<path d="" fill="#32D826" transform="translate(0,0)"/>
<path d="" fill="#D62F21" transform="translate(0,0)"/>
<path d="" fill="#33D826" transform="translate(0,0)"/>
<path d="" fill="#D62F21" transform="translate(0,0)"/>
<path d="" fill="#000000" transform="translate(0,0)"/>
<path d="" fill="#33D928" transform="translate(0,0)"/>
<path d="" fill="#32D927" transform="translate(0,0)"/>
<path d="" fill="#35D724" transform="translate(0,0)"/>
<path d="" fill="#32D728" transform="translate(0,0)"/>
<path d="" fill="#000000" transform="translate(0,0)"/>
<path d="" fill="#33DB27" transform="translate(0,0)"/>
<path d="" fill="#37D027" transform="translate(0,0)"/>
<path d="" fill="#040000" transform="translate(0,0)"/>
<path d="" fill="#33DB28" transform="translate(0,0)"/>
<path d="" fill="#32DC28" transform="translate(0,0)"/>
<path d="" fill="#000000" transform="translate(0,0)"/>
<path d="" fill="#37D028" transform="translate(0,0)"/>
<path d="" fill="#32D124" transform="translate(0,0)"/>
<path d="" fill="#36CC27" transform="translate(0,0)"/>
<path d="" fill="#160000" transform="translate(0,0)"/>
<path d="" fill="#35D026" transform="translate(0,0)"/>
<path d="" fill="#33E125" transform="translate(0,0)"/>
<path d="" fill="#35CC29" transform="translate(0,0)"/>
<path d="" fill="#000000" transform="translate(0,0)"/>
<path d="" fill="#32DE24" transform="translate(0,0)"/>
<path d="" fill="#30E027" transform="translate(0,0)"/>
<path d="" fill="#37CD27" transform="translate(0,0)"/>
<path d="" fill="#37CC27" transform="translate(0,0)"/>
<path d="" fill="#36DD2B" transform="translate(0,0)"/>
<path d="" fill="#3BCE28" transform="translate(0,0)"/>
<path d="" fill="#32E328" transform="translate(0,0)"/>
<path d="" fill="#040000" transform="translate(0,0)"/>
<path d="" fill="#39CA28" transform="translate(0,0)"/>
<path d="" fill="#34DD29" transform="translate(0,0)"/>
<path d="" fill="#32E528" transform="translate(0,0)"/>
<path d="" fill="#3CCC27" transform="translate(0,0)"/>
<path d="" fill="#34E328" transform="translate(0,0)"/>
<path d="" fill="#3AC92A" transform="translate(0,0)"/>
<path d="" fill="#000000" transform="translate(0,0)"/>
<path d="" fill="#040F00" transform="translate(0,0)"/>
<path d="" fill="#3DCA2B" transform="translate(0,0)"/>
<path d="" fill="#3DD02C" transform="translate(0,0)"/>
<path d="" fill="#000000" transform="translate(0,0)"/>
<path d="" fill="#3ECF2A" transform="translate(0,0)"/>
<path d="" fill="#000000" transform="translate(0,0)"/>
<path d="" fill="#33EC2A" transform="translate(0,0)"/>
<path d="" fill="#4EBF2D" transform="translate(0,0)"/>
<path d="" fill="#000000" transform="translate(0,0)"/>
<path d="" fill="#34EB29" transform="translate(0,0)"/>
<path d="" fill="#43C92A" transform="translate(0,0)"/>
<path d="" fill="#45CB2C" transform="translate(0,0)"/>
<path d="" fill="#30BC26" transform="translate(0,0)"/>
<path d="" fill="#4EC62F" transform="translate(0,0)"/>
<path d="" fill="#4BC22D" transform="translate(0,0)"/>
<path d="" fill="#0D0000" transform="translate(0,0)"/>
<path d="" fill="#50C12F" transform="translate(0,0)"/>
<path d="" fill="#000000" transform="translate(0,0)"/>
<path d="" fill="#000000" transform="translate(0,0)"/>
<path d="" fill="#000000" transform="translate(0,0)"/>
<path d="" fill="#000000" transform="translate(0,0)"/>
<path d="" fill="#000000" transform="translate(0,0)"/>
<path d="" fill="#B34427" transform="translate(0,0)"/>
<path d="" fill="#C0291E" transform="translate(0,0)"/>
<path d="" fill="#C8291F" transform="translate(0,0)"/>
<path d="" fill="#CA2B1D" transform="translate(0,0)"/>
<path d="" fill="#CE2E1F" transform="translate(0,0)"/>
<path d="" fill="#CF3021" transform="translate(0,0)"/>
<path d="" fill="#D13121" transform="translate(0,0)"/>
<path d="" fill="#D22E20" transform="translate(0,0)"/>
<path d="" fill="#CF3523" transform="translate(0,0)"/>
<path d="" fill="#C83723" transform="translate(0,0)"/>
<path d="" fill="#B83F27" transform="translate(0,0)"/>
<path d="" fill="#41C229" transform="translate(0,0)"/>
<path d="" fill="#3DC927" transform="translate(0,0)"/>
<path d="" fill="#37D329" transform="translate(0,0)"/>
<path d="" fill="#37DE2B" transform="translate(0,0)"/>
<path d="" fill="#38DD2A" transform="translate(0,0)"/>
<path d="" fill="#37DE2A" transform="translate(0,0)"/>
<path d="" fill="#38E028" transform="translate(0,0)"/>
<path d="" fill="#38E22B" transform="translate(0,0)"/>
<path d="" fill="#37DF2A" transform="translate(0,0)"/>
<path d="" fill="#38E02C" transform="translate(0,0)"/>
<path d="" fill="#37E12A" transform="translate(0,0)"/>
<path d="" fill="#36E12C" transform="translate(0,0)"/>
<path d="" fill="#35DE2A" transform="translate(0,0)"/>
<path d="" fill="#35DF2B" transform="translate(0,0)"/>
<path d="" fill="#37D829" transform="translate(0,0)"/>
<path d="" fill="#34D42A" transform="translate(0,0)"/>
<path d="" fill="#33CB29" transform="translate(0,0)"/>
<path d="" fill="#000000" transform="translate(0,0)"/>
<path d="" fill="#000000" transform="translate(0,0)"/>
<path d="" fill="#041403" transform="translate(0,0)"/>
<path d="" fill="#000000" transform="translate(0,0)"/>
<path d="" fill="#000000" transform="translate(0,0)"/>
<path d="" fill="#000000" transform="translate(0,0)"/>
<path d="" fill="#000000" transform="translate(0,0)"/>
<path d="" fill="#000000" transform="translate(0,0)"/>
<path d="" fill="#000000" transform="translate(0,0)"/>
<path d="" fill="#081B06" transform="translate(0,0)"/>
<path d="" fill="#000000" transform="translate(0,0)"/>
<path d="" fill="#010B00" transform="translate(0,0)"/>
<path d="" fill="#000000" transform="translate(0,0)"/>
<path d="" fill="#000000" transform="translate(0,0)"/>
<path d="" fill="#010900" transform="translate(0,0)"/>
<path d="" fill="#000000" transform="translate(0,0)"/>
<path d="" fill="#000000" transform="translate(0,0)"/>
<path d="" fill="#000100" transform="translate(0,0)"/>
<path d="" fill="#000000" transform="translate(0,0)"/>
<path d="" fill="#000000" transform="translate(0,0)"/>
<path d="" fill="#000000" transform="translate(0,0)"/>
<path d="" fill="#000000" transform="translate(0,0)"/>
<path d="" fill="#000000" transform="translate(0,0)"/>
<path d="" fill="#000000" transform="translate(0,0)"/>
<path d="" fill="#000000" transform="translate(0,0)"/>
<path d="" fill="#000000" transform="translate(0,0)"/>
<path d="" fill="#000000" transform="translate(0,0)"/>
<path d="" fill="#000000" transform="translate(0,0)"/>
<path d="" fill="#000000" transform="translate(0,0)"/>
<path d="" fill="#000000" transform="translate(0,0)"/>
<path d="" fill="#000000" transform="translate(0,0)"/>
<path d="" fill="#000000" transform="translate(0,0)"/>
<path d="" fill="#000000" transform="translate(0,0)"/>
<path d="" fill="#000000" transform="translate(0,0)"/>
<path d="" fill="#000000" transform="translate(0,0)"/>
<path d="" fill="#000000" transform="translate(0,0)"/>
<path d="" fill="#000000" transform="translate(0,0)"/>
<path d="" fill="#000000" transform="translate(0,0)"/>
<path d="" fill="#000000" transform="translate(0,0)"/>
<path d="" fill="#000000" transform="translate(0,0)"/>
</svg>
